<?xml version="1.0" encoding="utf-8"?>
<!-- Generator: Adobe Illustrator 15.0.0, SVG Export Plug-In . SVG Version: 6.00 Build 0)  -->
<!DOCTYPE svg PUBLIC "-//W3C//DTD SVG 1.1//EN" "http://www.w3.org/Graphics/SVG/1.1/DTD/svg11.dtd">
<svg version="1.1" id="Layer_1" xmlns="http://www.w3.org/2000/svg" xmlns:xlink="http://www.w3.org/1999/xlink" x="0px" y="0px"
	 width="56.7px" height="56.7px" viewBox="0 0 56.7 56.7" enable-background="new 0 0 56.7 56.7" xml:space="preserve">
<g>
	<rect x="0" y="0" fill="#E6E6E6" width="56.7" height="56.7"/>
	<g>
		<g>
			<polygon fill="#575757" points="3,10.9 0,10.9 0,0 10.6,0 10.6,3 3,3 			"/>
		</g>
		<g>
			<polygon fill="#575757" points="10.6,56.7 0,56.7 0,45.8 3,45.8 3,53.7 10.6,53.7 			"/>
		</g>
		<g>
			<polygon fill="#575757" points="56.7,56.7 46.1,56.7 46.1,53.7 53.7,53.7 53.7,45.8 56.7,45.8 			"/>
		</g>
		<g>
			<polygon fill="#575757" points="56.7,10.9 53.7,10.9 53.7,3 46.1,3 46.1,0 56.7,0 			"/>
		</g>
	</g>
	<g>
		<rect x="26" y="16.5" fill="#D1D3D4" width="14.2" height="14.2"/>
	</g>
	<g>
		<rect x="12.6" y="22.1" fill="#575757" width="22" height="22"/>
		<g>
			<path fill="#E6E6E6" d="M33.1,23.6v19h-19v-19H33.1 M36.1,20.6h-3h-19h-3v3v19v3h3h19h3v-3v-19V20.6L36.1,20.6z"/>
		</g>
	</g>
	<g>
		<defs>
			<rect id="SVGID_1_" x="14.1" y="23.6" width="19" height="19"/>
		</defs>
		<clipPath id="SVGID_2_">
			<use xlink:href="#SVGID_1_"  overflow="visible"/>
		</clipPath>
		<g clip-path="url(#SVGID_2_)">
			<line fill="none" stroke="#808285" stroke-width="2" stroke-miterlimit="10" x1="43.7" y1="30.2" x2="20.7" y2="53.3"/>
			<line fill="none" stroke="#808285" stroke-width="2" stroke-miterlimit="10" x1="40.3" y1="26.8" x2="17.3" y2="49.8"/>
			<line fill="none" stroke="#808285" stroke-width="2" stroke-miterlimit="10" x1="36.8" y1="23.3" x2="13.8" y2="46.3"/>
			<line fill="none" stroke="#808285" stroke-width="2" stroke-miterlimit="10" x1="33.4" y1="19.9" x2="10.3" y2="42.9"/>
			<line fill="none" stroke="#808285" stroke-width="2" stroke-miterlimit="10" x1="29.9" y1="16.4" x2="6.9" y2="39.4"/>
			<line fill="none" stroke="#808285" stroke-width="2" stroke-miterlimit="10" x1="26.5" y1="13" x2="3.4" y2="36"/>
		</g>
	</g>
</g>
</svg>
