<?xml version="1.0" encoding="utf-8"?>
<!-- Generator: Adobe Illustrator 15.0.0, SVG Export Plug-In . SVG Version: 6.00 Build 0)  -->
<!DOCTYPE svg PUBLIC "-//W3C//DTD SVG 1.1//EN" "http://www.w3.org/Graphics/SVG/1.1/DTD/svg11.dtd">
<svg version="1.1" id="Layer_1" xmlns="http://www.w3.org/2000/svg" xmlns:xlink="http://www.w3.org/1999/xlink" x="0px" y="0px"
	 width="56.7px" height="56.7px" viewBox="0 0 56.7 56.7" enable-background="new 0 0 56.7 56.7" xml:space="preserve">
<g>
	<rect x="0" y="0" fill="#E6E6E6" width="56.7" height="56.7"/>
	<g>
		<rect x="21.6" y="15.9" fill="#D1D3D4" width="19" height="19"/>
	</g>
	<g>
		<g>
			<rect x="14.6" y="20.2" fill="#BCBEC0" width="22" height="22"/>
			<g>
				<path fill="#E6E6E6" d="M35.1,21.7v19h-19v-19H35.1 M38.1,18.7h-3h-19h-3v3v19v3h3h19h3v-3v-19V18.7L38.1,18.7z"/>
			</g>
		</g>
		<g>
			<defs>
				<rect id="SVGID_1_" x="16.1" y="21.7" width="19" height="19"/>
			</defs>
			<clipPath id="SVGID_2_">
				<use xlink:href="#SVGID_1_"  overflow="visible"/>
			</clipPath>
			<g clip-path="url(#SVGID_2_)">
				<line fill="none" stroke="#CECDCD" stroke-width="2" stroke-miterlimit="10" x1="45.7" y1="28.4" x2="22.7" y2="51.4"/>
				<line fill="none" stroke="#CECDCD" stroke-width="2" stroke-miterlimit="10" x1="42.3" y1="24.9" x2="19.3" y2="47.9"/>
				<line fill="none" stroke="#CECDCD" stroke-width="2" stroke-miterlimit="10" x1="38.8" y1="21.5" x2="15.8" y2="44.5"/>
				<line fill="none" stroke="#CECDCD" stroke-width="2" stroke-miterlimit="10" x1="35.4" y1="18" x2="12.3" y2="41"/>
				<line fill="none" stroke="#CECDCD" stroke-width="2" stroke-miterlimit="10" x1="31.9" y1="14.6" x2="8.9" y2="37.6"/>
				<line fill="none" stroke="#CECDCD" stroke-width="2" stroke-miterlimit="10" x1="28.5" y1="11.1" x2="5.4" y2="34.1"/>
			</g>
		</g>
	</g>
	<g>
		<g>
			<polygon fill="#BCBEC0" points="3,10.9 0,10.9 0,0 10.6,0 10.6,3 3,3 			"/>
		</g>
		<g>
			<polygon fill="#BCBEC0" points="10.6,56.7 0,56.7 0,45.8 3,45.8 3,53.7 10.6,53.7 			"/>
		</g>
		<g>
			<polygon fill="#BCBEC0" points="56.7,56.7 46.1,56.7 46.1,53.7 53.7,53.7 53.7,45.8 56.7,45.8 			"/>
		</g>
		<g>
			<polygon fill="#BCBEC0" points="56.7,10.9 53.7,10.9 53.7,3 46.1,3 46.1,0 56.7,0 			"/>
		</g>
	</g>
	<g>
		<g>
			<g>
				<g>
					<g>
						<path fill="#E6E6E6" d="M23.9,33.5L23,36.4h-1.9l3.3-10.2h2.4l3.3,10.2h-2l-0.9-2.9H23.9z M26.8,32L26,29.5
							c-0.2-0.6-0.4-1.3-0.5-1.9h0c-0.2,0.6-0.3,1.3-0.5,1.9L24.2,32H26.8z"/>
					</g>
				</g>
			</g>
		</g>
	</g>
</g>
</svg>
