<?xml version="1.0" encoding="utf-8"?>
<!-- Generator: Adobe Illustrator 15.0.0, SVG Export Plug-In . SVG Version: 6.00 Build 0)  -->
<!DOCTYPE svg PUBLIC "-//W3C//DTD SVG 1.1//EN" "http://www.w3.org/Graphics/SVG/1.1/DTD/svg11.dtd">
<svg version="1.1" id="Layer_1" xmlns="http://www.w3.org/2000/svg" xmlns:xlink="http://www.w3.org/1999/xlink" x="0px" y="0px"
	 width="56.7px" height="56.7px" viewBox="0 0 56.7 56.7" enable-background="new 0 0 56.7 56.7" xml:space="preserve">
<g>
	<rect x="0" y="0" fill="#F5F6F6" width="56.7" height="56.7"/>
	<g>
		<g>
			<polygon fill="#575757" points="3,10.9 0,10.9 0,0 10.6,0 10.6,3 3,3 			"/>
		</g>
		<g>
			<polygon fill="#575757" points="10.6,56.7 0,56.7 0,45.8 3,45.8 3,53.7 10.6,53.7 			"/>
		</g>
		<g>
			<polygon fill="#575757" points="56.7,56.7 46.1,56.7 46.1,53.7 53.7,53.7 53.7,45.8 56.7,45.8 			"/>
		</g>
		<g>
			<polygon fill="#575757" points="56.7,10.9 53.7,10.9 53.7,3 46.1,3 46.1,0 56.7,0 			"/>
		</g>
	</g>
	<g>
		<path fill="#EEEEEE" d="M28.3,31.1c-4.1,0-7.5-3.4-7.5-7.5v-7.2h15v7.2C35.8,27.7,32.5,31.1,28.3,31.1z"/>
		<path fill="#000000" d="M34.3,17.9v5.7c0,3.3-2.7,6-6,6c-3.3,0-6-2.7-6-6v-5.7H34.3 M37.3,14.9h-18v8.7c0,5,4,9,9,9c5,0,9-4,9-9
			V14.9L37.3,14.9z"/>
	</g>

	<g>
		<path fill="#000000" d="M41.3,17.9H15.4c-0.8,0-1.5-0.7-1.5-1.5s0.7-1.5,1.5-1.5h25.9c0.8,0,1.5,0.7,1.5,1.5S42.1,17.9,41.3,17.9z
			"/>
	</g>
</g>
</svg>
