<?xml version="1.0" encoding="utf-8"?>
<!-- Generator: Adobe Illustrator 15.0.0, SVG Export Plug-In . SVG Version: 6.00 Build 0)  -->
<!DOCTYPE svg PUBLIC "-//W3C//DTD SVG 1.1//EN" "http://www.w3.org/Graphics/SVG/1.1/DTD/svg11.dtd">
<svg version="1.1" id="Layer_1" xmlns="http://www.w3.org/2000/svg" xmlns:xlink="http://www.w3.org/1999/xlink" x="0px" y="0px"
	 width="56.7px" height="56.7px" viewBox="0 0 56.7 56.7" enable-background="new 0 0 56.7 56.7" xml:space="preserve">
<g>
	<rect x="0" y="0" fill="#F5F6F6" width="56.7" height="56.7"/>
	<g>
		<rect x="22.1" y="12.6" fill="#575757" width="22" height="22"/>
		<g>
			<path fill="#F5F5F5" d="M42.6,14.1v19h-19v-19H42.6 M45.6,11.1h-3h-19h-3v3v19v3h3h19h3v-3v-19V11.1L45.6,11.1z"/>
		</g>
	</g>
	<g>
		<defs>
			<rect id="SVGID_1_" x="23.6" y="14.1" width="19" height="19"/>
		</defs>
		<clipPath id="SVGID_2_">
			<use xlink:href="#SVGID_1_"  overflow="visible"/>
		</clipPath>
		<g clip-path="url(#SVGID_2_)">
			<line fill="none" stroke="#808285" stroke-width="2" stroke-miterlimit="10" x1="53.3" y1="20.7" x2="30.2" y2="43.7"/>
			<line fill="none" stroke="#808285" stroke-width="2" stroke-miterlimit="10" x1="49.8" y1="17.3" x2="26.8" y2="40.3"/>
			<line fill="none" stroke="#808285" stroke-width="2" stroke-miterlimit="10" x1="46.3" y1="13.8" x2="23.3" y2="36.8"/>
			<line fill="none" stroke="#808285" stroke-width="2" stroke-miterlimit="10" x1="42.9" y1="10.3" x2="19.9" y2="33.4"/>
			<line fill="none" stroke="#808285" stroke-width="2" stroke-miterlimit="10" x1="39.4" y1="6.9" x2="16.4" y2="29.9"/>
			<line fill="none" stroke="#808285" stroke-width="2" stroke-miterlimit="10" x1="36" y1="3.4" x2="13" y2="26.5"/>
		</g>
	</g>
	<g>
		<rect x="15" y="24.5" fill="#D1D3D4" width="17.2" height="17.2"/>
		<g>
			<path fill="#F5F5F5" d="M30.7,26v14.2H16.5V26H30.7 M33.7,23h-3H16.5h-3v3v14.2v3h3h14.2h3v-3V26V23L33.7,23z"/>
		</g>
	</g>
	<g>
		<g>
			<polygon fill="#575757" points="3,10.9 0,10.9 0,0 10.6,0 10.6,3 3,3 			"/>
		</g>
		<g>
			<polygon fill="#575757" points="10.6,56.7 0,56.7 0,45.8 3,45.8 3,53.7 10.6,53.7 			"/>
		</g>
		<g>
			<polygon fill="#575757" points="56.7,56.7 46.1,56.7 46.1,53.7 53.7,53.7 53.7,45.8 56.7,45.8 			"/>
		</g>
		<g>
			<polygon fill="#575757" points="56.7,10.9 53.7,10.9 53.7,3 46.1,3 46.1,0 56.7,0 			"/>
		</g>
	</g>
</g>
</svg>
