<?xml version="1.0" encoding="utf-8"?>
<!-- Generator: Adobe Illustrator 15.0.0, SVG Export Plug-In . SVG Version: 6.00 Build 0)  -->
<!DOCTYPE svg PUBLIC "-//W3C//DTD SVG 1.1//EN" "http://www.w3.org/Graphics/SVG/1.1/DTD/svg11.dtd">
<svg version="1.1" id="Layer_1" xmlns="http://www.w3.org/2000/svg" xmlns:xlink="http://www.w3.org/1999/xlink" x="0px" y="0px"
	 width="56.7px" height="56.7px" viewBox="0 0 56.7 56.7" enable-background="new 0 0 56.7 56.7" xml:space="preserve">
<g>
	<rect x="0" y="0" fill="#F5F6F6" width="56.7" height="56.7"/>
	<g>
		<line fill="none" stroke="#575757" stroke-width="3" stroke-miterlimit="10" x1="16.2" y1="28.3" x2="40.5" y2="28.3"/>
		<g>
			<rect x="16.2" y="20.3" fill="none" stroke="#575757" stroke-width="3" stroke-miterlimit="10" width="24.2" height="16.2"/>
		</g>
	</g>
	<g>
		<g>
			<polygon fill="#575757" points="2.8,23.4 0,23.4 0,0 24.8,0 24.8,2.8 2.8,2.8 			"/>
		</g>
		<g>
			<polygon fill="#575757" points="24.8,56.7 0,56.7 0,33.3 2.8,33.3 2.8,53.8 24.8,53.8 			"/>
		</g>
		<g>
			<polygon fill="#575757" points="56.7,56.7 31.9,56.7 31.9,53.8 53.8,53.8 53.8,33.3 56.7,33.3 			"/>
		</g>
		<g>
			<polygon fill="#575757" points="56.7,23.4 53.8,23.4 53.8,2.8 31.9,2.8 31.9,0 56.7,0 			"/>
		</g>
	</g>
	<g>
		<rect x="26.9" y="0" fill="#575757" width="2.8" height="8.1"/>
		<rect x="26.9" y="48.6" fill="#575757" width="2.8" height="8.1"/>
	</g>
	<g>
		<rect x="48.6" y="26.9" fill="#575757" width="8.1" height="2.8"/>
		<rect x="0" y="26.9" fill="#575757" width="8.1" height="2.8"/>
	</g>
</g>
</svg>
