<?xml version="1.0" encoding="utf-8"?>
<!-- Generator: Adobe Illustrator 15.0.0, SVG Export Plug-In . SVG Version: 6.00 Build 0)  -->
<!DOCTYPE svg PUBLIC "-//W3C//DTD SVG 1.1//EN" "http://www.w3.org/Graphics/SVG/1.1/DTD/svg11.dtd">
<svg version="1.1" id="Layer_1" xmlns="http://www.w3.org/2000/svg" xmlns:xlink="http://www.w3.org/1999/xlink" x="0px" y="0px"
	 width="56.7px" height="56.7px" viewBox="0 0 56.7 56.7" enable-background="new 0 0 56.7 56.7" xml:space="preserve">
<g>
	<rect x="0" y="0" fill="#E6E6E5" width="56.7" height="56.7"/>
	<g>
		<g>
			<path fill="none" stroke="#BEBEBE" stroke-width="3" stroke-miterlimit="10" d="M40.5,36.7V20c-3.1,2.1-7.4,3.4-12.1,3.4
				c-4.7,0-9-1.3-12.1-3.4v16.8c3.1-2.1,7.4-3.4,12.1-3.4C33.1,33.3,37.4,34.6,40.5,36.7z"/>
		</g>
	</g>
	<g>
		<g>
			<polygon fill="#BCBEC0" points="2.8,23.4 0,23.4 0,0 24.8,0 24.8,2.8 2.8,2.8 			"/>
		</g>
		<g>
			<polygon fill="#BCBEC0" points="24.8,56.7 0,56.7 0,33.3 2.8,33.3 2.8,53.8 24.8,53.8 			"/>
		</g>
		<g>
			<polygon fill="#BCBEC0" points="56.7,56.7 31.9,56.7 31.9,53.8 53.8,53.8 53.8,33.3 56.7,33.3 			"/>
		</g>
		<g>
			<polygon fill="#BCBEC0" points="56.7,23.4 53.8,23.4 53.8,2.8 31.9,2.8 31.9,0 56.7,0 			"/>
		</g>
	</g>
	<g>
		<rect x="26.9" y="0" fill="#BCBEC0" width="2.8" height="8.1"/>
		<rect x="26.9" y="48.6" fill="#BCBEC0" width="2.8" height="8.1"/>
	</g>
	<g>
		<rect x="48.6" y="26.9" fill="#BCBEC0" width="8.1" height="2.8"/>
		<rect x="0" y="26.9" fill="#BCBEC0" width="8.1" height="2.8"/>
	</g>
</g>
</svg>
