<?xml version="1.0" encoding="utf-8"?>
<!-- Generator: Adobe Illustrator 15.0.0, SVG Export Plug-In . SVG Version: 6.00 Build 0)  -->
<!DOCTYPE svg PUBLIC "-//W3C//DTD SVG 1.1//EN" "http://www.w3.org/Graphics/SVG/1.1/DTD/svg11.dtd">
<svg version="1.1" id="Layer_1" xmlns="http://www.w3.org/2000/svg" xmlns:xlink="http://www.w3.org/1999/xlink" x="0px" y="0px"
	 width="56.7px" height="56.7px" viewBox="0 0 56.7 56.7" enable-background="new 0 0 56.7 56.7" xml:space="preserve">
<g>
	<rect x="0" y="0" fill="#E6E6E6" width="56.7" height="56.7"/>
	<g>
		<path fill="#575757" d="M56.7,56.7H0V0h56.7V56.7z M2.8,53.8h51v-51h-51V53.8z"/>
	</g>
	<line fill="none" stroke="#575757" stroke-width="3" stroke-miterlimit="10" x1="28.3" y1="55.5" x2="28.3" y2="1.2"/>
	<line fill="none" stroke="#575757" stroke-width="3" stroke-miterlimit="10" x1="1.4" y1="28.3" x2="55.3" y2="28.3"/>
	<g>
		<path fill="#58595B" stroke="#58595B" stroke-width="5" stroke-miterlimit="10" d="M32.9,34.1v4.1h-3.3v-4.1h-9.9v-3.7l9.8-15h3.3
			v15.7h2.9v2.9H32.9z"/>
	</g>
	<g>
		<path fill="#E6E6E6" d="M32.9,34.1v4.1h-3.3v-4.1h-9.9v-3.7l9.8-15h3.3v15.7h2.9v2.9H32.9z M29.7,20.7L23,31.2h6.7V20.7z"/>
	</g>
</g>
</svg>
