<?xml version="1.0" encoding="utf-8"?>
<!-- Generator: Adobe Illustrator 15.0.0, SVG Export Plug-In . SVG Version: 6.00 Build 0)  -->
<!DOCTYPE svg PUBLIC "-//W3C//DTD SVG 1.1//EN" "http://www.w3.org/Graphics/SVG/1.1/DTD/svg11.dtd">
<svg version="1.1" id="Layer_1" xmlns="http://www.w3.org/2000/svg" xmlns:xlink="http://www.w3.org/1999/xlink" x="0px" y="0px"
	 width="56.7px" height="56.7px" viewBox="0 0 56.7 56.7" enable-background="new 0 0 56.7 56.7" xml:space="preserve">
<g>
	<path fill="#F5F6F6" d="M56.7,28.3C56.7,44,44,56.7,28.3,56.7C12.7,56.7,0,44,0,28.3C0,12.7,12.7,0,28.3,0
		C44,0,56.7,12.7,56.7,28.3z"/>
	<circle fill="#575757" cx="28.3" cy="28.3" r="8"/>
	<g>
		<path fill="#575757" d="M28.3,3c14,0,25.3,11.4,25.3,25.3c0,14-11.4,25.4-25.3,25.4C14.4,53.7,3,42.3,3,28.3C3,14.4,14.4,3,28.3,3
			 M28.3,0C12.7,0,0,12.7,0,28.3C0,44,12.7,56.7,28.3,56.7C44,56.7,56.7,44,56.7,28.3C56.7,12.7,44,0,28.3,0L28.3,0z"/>
	</g>
</g>
</svg>
