<?xml version="1.0" encoding="utf-8"?>
<!-- Generator: Adobe Illustrator 15.0.0, SVG Export Plug-In . SVG Version: 6.00 Build 0)  -->
<!DOCTYPE svg PUBLIC "-//W3C//DTD SVG 1.1//EN" "http://www.w3.org/Graphics/SVG/1.1/DTD/svg11.dtd">
<svg version="1.1" id="Layer_1" xmlns="http://www.w3.org/2000/svg" xmlns:xlink="http://www.w3.org/1999/xlink" x="0px" y="0px"
	 width="56.7px" height="56.7px" viewBox="0 0 56.7 56.7" enable-background="new 0 0 56.7 56.7" xml:space="preserve">
<g>
	<rect x="0" y="0" fill="#E6E6E5" width="56.7" height="56.7"/>
	<g>
		<g>
			<polygon fill="#575757" points="3,10.9 0,10.9 0,0 10.6,0 10.6,3 3,3 			"/>
		</g>
		<g>
			<polygon fill="#575757" points="10.6,56.7 0,56.7 0,45.8 3,45.8 3,53.7 10.6,53.7 			"/>
		</g>
		<g>
			<polygon fill="#575757" points="56.7,56.7 46.1,56.7 46.1,53.7 53.7,53.7 53.7,45.8 56.7,45.8 			"/>
		</g>
		<g>
			<polygon fill="#575757" points="56.7,10.9 53.7,10.9 53.7,3 46.1,3 46.1,0 56.7,0 			"/>
		</g>
	</g>
	<g>
		<line fill="none" stroke="#575757" stroke-width="3" stroke-miterlimit="10" x1="15.6" y1="28.3" x2="41.1" y2="28.3"/>
	</g>
</g>
</svg>
