<?xml version="1.0" encoding="utf-8"?>
<!-- Generator: Adobe Illustrator 15.0.0, SVG Export Plug-In . SVG Version: 6.00 Build 0)  -->
<!DOCTYPE svg PUBLIC "-//W3C//DTD SVG 1.1//EN" "http://www.w3.org/Graphics/SVG/1.1/DTD/svg11.dtd">
<svg version="1.1" id="Layer_1" xmlns="http://www.w3.org/2000/svg" xmlns:xlink="http://www.w3.org/1999/xlink" x="0px" y="0px"
	 width="13.996px" height="13.998px" viewBox="0 0 13.996 13.998" enable-background="new 0 0 13.996 13.998" xml:space="preserve">
<path fill="#7A7A7A" d="M10.887,13.983H3.111c-1.717,0-3.11-1.396-3.11-3.109V3.096c0-1.715,1.396-3.109,3.11-3.109h7.775
	c1.715,0,3.109,1.395,3.109,3.109v7.778C13.996,12.586,12.604,13.983,10.887,13.983z M3.111,0.971c-1.172,0-2.127,0.952-2.127,2.125
	v7.777c0,1.172,0.955,2.125,2.127,2.125h7.775c1.172,0,2.127-0.953,2.127-2.125V3.096c0-1.173-0.955-2.125-2.127-2.125H3.111z"/>
<path fill="#7A7A7A" d="M3.007,6.01v1.979h7.981V6.01H3.007z"/>
</svg>
