<?xml version="1.0" encoding="utf-8"?>
<!-- Generator: Adobe Illustrator 15.0.0, SVG Export Plug-In . SVG Version: 6.00 Build 0)  -->
<!DOCTYPE svg PUBLIC "-//W3C//DTD SVG 1.1//EN" "http://www.w3.org/Graphics/SVG/1.1/DTD/svg11.dtd">
<svg version="1.1" id="Layer_1" xmlns="http://www.w3.org/2000/svg" xmlns:xlink="http://www.w3.org/1999/xlink" x="0px" y="0px"
	 width="19px" height="23px" viewBox="0 0 19 23" enable-background="new 0 0 19 23" xml:space="preserve">
<path fill="#CED3D5" d="M17.6,11H16.2V6.7c0-3.7-3-6.7-6.7-6.7S2.8,3,2.8,6.7V11H1.4C0.6,11,0,11.6,0,12.399v9.2
	C0,22.401,0.6,23,1.4,23h16.2c0.801,0,1.4-0.601,1.4-1.4v-9.2C19,11.6,18.4,11,17.6,11z M4.8,6.7C4.8,4.099,6.9,2,9.5,2
	s4.7,2.1,4.7,4.7V11H4.8V6.7z"/>
</svg>
