<?xml version="1.0" encoding="utf-8"?>
<!-- Generator: Adobe Illustrator 15.0.0, SVG Export Plug-In . SVG Version: 6.00 Build 0)  -->
<!DOCTYPE svg PUBLIC "-//W3C//DTD SVG 1.1//EN" "http://www.w3.org/Graphics/SVG/1.1/DTD/svg11.dtd">
<svg version="1.1" id="Layer_1" xmlns="http://www.w3.org/2000/svg" xmlns:xlink="http://www.w3.org/1999/xlink" x="0px" y="0px"
	 width="24px" height="23.984px" viewBox="0 0 24 23.984" enable-background="new 0 0 24 23.984" xml:space="preserve">
<g>
	<path fill="#C8C8C8" d="M12,1.992c-5.5,0-10,4.5-10,10s4.5,10,10,10c5.5,0,10-4.5,10-10S17.5,1.992,12,1.992z"/>
	<path fill="#797979" d="M12-0.008c-6.602,0-12,5.399-12,12c0,6.6,5.399,12,12,12c6.6,0,12-5.4,12-12C24,5.392,18.6-0.008,12-0.008z
		 M12,21.992c-5.5,0-10-4.5-10-10s4.5-10,10-10c5.5,0,10,4.5,10,10S17.5,21.992,12,21.992z"/>
</g>
<rect x="7" y="10.992" fill="#797979" width="10" height="2"/>
</svg>
