<?xml version="1.0" encoding="utf-8"?>
<!-- Generator: Adobe Illustrator 15.0.0, SVG Export Plug-In . SVG Version: 6.00 Build 0)  -->
<!DOCTYPE svg PUBLIC "-//W3C//DTD SVG 1.1//EN" "http://www.w3.org/Graphics/SVG/1.1/DTD/svg11.dtd">
<svg version="1.1" id="Layer_1" xmlns="http://www.w3.org/2000/svg" xmlns:xlink="http://www.w3.org/1999/xlink" x="0px" y="0px"
	 width="23.299px" height="27.008px" viewBox="287.005 404.023 23.299 27.008"
	 enable-background="new 287.005 404.023 23.299 27.008" xml:space="preserve">
<path fill="#3F3F3F" d="M305.423,429.435h-16.822v-23.817h16.822v2.987h1.596c0-1.93,0-3.246,0-3.475
	c0-1.056-0.852-1.107-0.852-1.107h-18.311c0,0-0.852,0.051-0.852,1.051c0,0.104,0,24.751,0,24.849c0,1.057,0.852,1.107,0.852,1.107
	h18.311c0,0,0.852-0.051,0.852-1.049c0-0.221,0-1.563,0-3.533h-1.595L305.423,429.435L305.423,429.435z"/>
<path fill="#3F3F3F" d="M310.304,417.195l-6.955-5.829l0.899,3.93h-6.67v3.798h6.67l-0.899,3.931L310.304,417.195z"/>
</svg>
