<?xml version="1.0" encoding="utf-8"?>
<!-- Generator: Adobe Illustrator 15.0.0, SVG Export Plug-In . SVG Version: 6.00 Build 0)  -->
<!DOCTYPE svg PUBLIC "-//W3C//DTD SVG 1.1//EN" "http://www.w3.org/Graphics/SVG/1.1/DTD/svg11.dtd">
<svg version="1.1" id="Layer_1" xmlns="http://www.w3.org/2000/svg" xmlns:xlink="http://www.w3.org/1999/xlink" x="0px" y="0px"
	 width="26.052px" height="28.695px" viewBox="284.85 403.285 26.052 28.695" enable-background="new 284.85 403.285 26.052 28.695"
	 xml:space="preserve">
<path fill="#3F3F3F" d="M307.574,430.367h-5.009c-1.438-0.076-2.166-0.529-2.509-1.215c6.146-1.043,10.845-6.402,10.845-12.841
	c0-7.183-5.844-13.026-13.025-13.026c-7.184,0-13.026,5.844-13.026,13.026c0,6.438,4.698,11.798,10.845,12.841
	c-0.342,0.686-1.07,1.141-2.509,1.215h-5.008c0,0-0.862,0.018-0.862,0.369c0,0.078,0,0.551,0,1.244h21.121c0-0.037,0-1.189,0-1.225
	C308.437,430.384,307.574,430.367,307.574,430.367z M286.547,416.311c0-6.247,5.082-11.329,11.329-11.329
	c6.246,0,11.328,5.083,11.328,11.329c0,6.245-5.082,11.329-11.328,11.329C291.629,427.64,286.547,422.558,286.547,416.311z"/>
<path fill="#3F3F3F" d="M300.801,422.597c-0.339-0.414-0.543-0.939-0.543-1.515c0-1.317,1.071-2.389,2.389-2.389
	c0.575,0,1.104,0.204,1.516,0.544c0.416-0.89,0.649-1.88,0.649-2.926c0-3.824-3.111-6.936-6.936-6.936
	c-0.771,0-1.514,0.128-2.207,0.361c1.045,0.54,1.764,1.629,1.764,2.885c0,1.791-1.456,3.246-3.247,3.246
	c-1.255,0-2.345-0.717-2.884-1.763c-0.233,0.693-0.362,1.435-0.362,2.206c0,3.824,3.111,6.936,6.937,6.936
	C298.921,423.248,299.911,423.013,300.801,422.597z"/>
</svg>
