<?xml version="1.0" encoding="utf-8"?>
<!-- Generator: Adobe Illustrator 15.0.0, SVG Export Plug-In . SVG Version: 6.00 Build 0)  -->
<!DOCTYPE svg PUBLIC "-//W3C//DTD SVG 1.1//EN" "http://www.w3.org/Graphics/SVG/1.1/DTD/svg11.dtd">
<svg version="1.1" id="Layer_1" xmlns="http://www.w3.org/2000/svg" xmlns:xlink="http://www.w3.org/1999/xlink" x="0px" y="0px"
	 width="12px" height="20px" viewBox="6.5 5.5 12 20" enable-background="new 6.5 5.5 12 20" xml:space="preserve">
<image overflow="visible" enable-background="new    " width="13" height="21" xlink:href="172B5D36.jpeg"  transform="matrix(0.923 0 0 0.9523 -7894 -7770.1094)">
</image>
<image overflow="visible" enable-background="new    " width="13" height="21" xlink:href="172B5D3A.jpeg"  transform="matrix(0.923 0 0 0.9523 -7894 -7770.1094)">
</image>
<image overflow="visible" enable-background="new    " width="13" height="21" xlink:href="172B5D3A.jpeg"  transform="matrix(0.923 0 0 0.9523 -7894 -7770.1094)">
</image>
<image overflow="visible" enable-background="new    " width="13" height="21" xlink:href="172B5D3E.jpeg"  transform="matrix(0.923 0 0 0.9523 -7894 -7770.1094)">
</image>
<image overflow="visible" enable-background="new    " width="13" height="21" xlink:href="172B5D3E.jpeg"  transform="matrix(0.923 0 0 0.9523 -7894 -7770.1094)">
</image>
<image overflow="visible" enable-background="new    " width="13" height="21" xlink:href="172B5D3A.jpeg"  transform="matrix(0.923 0 0 0.9523 -7894 -7770.1094)">
</image>
<image overflow="visible" enable-background="new    " width="13" height="21" xlink:href="172B5D3A.jpeg"  transform="matrix(0.923 0 0 0.9523 -7894 -7770.1094)">
</image>
<image overflow="visible" enable-background="new    " width="13" height="21" xlink:href="172B5D36.jpeg"  transform="matrix(0.923 0 0 0.9523 -7894 -7770.1094)">
</image>
<image overflow="visible" enable-background="new    " width="13" height="21" xlink:href="172B5D36.jpeg"  transform="matrix(0.923 0 0 0.9523 -7894 -7770.1094)">
</image>
<image overflow="visible" enable-background="new    " width="13" height="21" xlink:href="59447929.jpeg"  transform="matrix(0.923 0 0 0.9523 -7894 -7770.1094)">
</image>
<image overflow="visible" enable-background="new    " width="13" height="21" xlink:href="5944792F.jpeg"  transform="matrix(0.923 0 0 0.9523 -7894 -7770.1094)">
</image>
<g>
	<rect x="8.5" y="7.5" fill="#F5F6F6" width="8" height="16"/>
	<path fill="#797979" d="M6.5,5.5v20h12v-20H6.5z M16.5,23.5h-8v-16h8V23.5z"/>
</g>
<rect x="11.5" y="10.5" fill="#797979" width="1.898" height="10"/>
</svg>
