<?xml version="1.0" encoding="utf-8"?>
<!-- Generator: Adobe Illustrator 15.0.0, SVG Export Plug-In . SVG Version: 6.00 Build 0)  -->
<!DOCTYPE svg PUBLIC "-//W3C//DTD SVG 1.1//EN" "http://www.w3.org/Graphics/SVG/1.1/DTD/svg11.dtd">
<svg version="1.1" id="Layer_1" xmlns="http://www.w3.org/2000/svg" xmlns:xlink="http://www.w3.org/1999/xlink" x="0px" y="0px"
	 width="23.3px" height="27px" viewBox="0 0 23.3 27" enable-background="new 0 0 23.3 27" xml:space="preserve">
<path fill="#005AAA" d="M18.7,25.4H1.9V1.6h16.8v3h1.6c0-1.9,0-3.2,0-3.5c0-1.1-0.9-1.1-0.9-1.1H1.2c0,0-0.9,0.1-0.9,1.1
	c0,0.1,0,24.8,0,24.8C0.3,27,1.2,27,1.2,27h18.3c0,0,0.9-0.1,0.9-1c0-0.2,0-1.6,0-3.5h-1.6L18.7,25.4L18.7,25.4z"/>
<path fill="#005AAA" d="M23.6,13.2l-7-5.8l0.9,3.9h-6.7v3.8h6.7L16.7,19L23.6,13.2z"/>
</svg>
