<?xml version="1.0" encoding="utf-8"?>
<!-- Generator: Adobe Illustrator 15.0.0, SVG Export Plug-In . SVG Version: 6.00 Build 0)  -->
<!DOCTYPE svg PUBLIC "-//W3C//DTD SVG 1.1//EN" "http://www.w3.org/Graphics/SVG/1.1/DTD/svg11.dtd">
<svg version="1.1" id="Layer_1" xmlns="http://www.w3.org/2000/svg" xmlns:xlink="http://www.w3.org/1999/xlink" x="0px" y="0px"
	 width="28.4px" height="28.1px" viewBox="0 0 28.4 28.1" enable-background="new 0 0 28.4 28.1" xml:space="preserve">
<path fill="#005AAA" d="M28.4,13.3c-0.1-0.5-0.1-1-0.2-1.6c-0.1-0.6-0.2-1.2-0.3-1.6c-0.2-0.7-0.7-1-1.2-1.1
	c-0.3-0.1-1.4-0.3-2.1-0.2l0,0c0,0,0,0,0,0c-0.1-0.2-0.3-0.5-0.5-0.8c0,0,0,0,0-0.1c0.4-0.6,0.7-1.6,0.9-2c0.2-0.5,0.2-1.1-0.3-1.6
	c-0.3-0.3-0.7-0.7-1.2-1.1c-0.5-0.4-0.9-0.7-1.3-1C21.8,2.1,21.5,2,21.2,2c-0.4,0-0.6,0.2-0.8,0.3c-0.3,0.2-1.2,0.7-1.8,1.2
	c0,0,0,0-0.1,0c-0.2-0.1-0.5-0.2-0.9-0.3c0,0,0,0,0-0.1c-0.1-0.7-0.5-1.7-0.6-2.1c-0.1-0.5-0.6-1-1.3-1c-0.5,0-1-0.1-1.6-0.1
	s-1.1,0-1.6,0.1c-0.7,0-1.2,0.5-1.3,1c-0.1,0.3-0.5,1.3-0.6,2.1c0,0,0,0,0,0.1C10.4,3.3,10,3.5,9.8,3.5c0,0,0,0-0.1,0
	C9.2,3,8.3,2.5,8,2.3C7.8,2.2,7.5,2,7.2,2C6.9,2,6.6,2.1,6.3,2.3C6,2.6,5.6,2.9,5.1,3.3C4.6,3.7,4.2,4.1,3.9,4.4
	C3.4,4.9,3.3,5.5,3.6,6c0.1,0.3,0.5,1.4,0.9,2c0,0,0,0,0,0.1C4.3,8.4,4.1,8.7,4,8.9c0,0,0,0,0,0h0C3.2,8.8,2.1,9,1.8,9.1
	c-0.5,0-1.1,0.4-1.2,1.1c-0.1,0.4-0.2,1-0.3,1.6c-0.1,0.6-0.2,1.1-0.2,1.6c-0.1,0.7,0.3,1.2,0.8,1.4c0.3,0.2,1.2,0.7,1.9,1
	c0,0,0,0,0.1,0L3,16.7c0,0,0,0-0.1,0c-0.6,0.4-1.3,1.3-1.5,1.5c-0.4,0.4-0.6,1-0.3,1.6c0.2,0.4,0.5,0.9,0.8,1.4
	c0.3,0.5,0.6,1,0.8,1.4C3,23,3.4,23.3,3.9,23.3c0.2,0,0.3,0,0.4-0.1c0.3,0,1.4-0.2,2.1-0.5c0,0,0,0,0.1,0c0.1,0.1,0.4,0.3,0.7,0.6
	c0,0,0,0,0,0.1C7,24.1,7,25.2,7,25.5C7,26,7.2,26.6,7.9,26.9c0.4,0.2,0.9,0.4,1.5,0.6c0.6,0.2,1.1,0.4,1.5,0.5
	c0.1,0,0.3,0.1,0.4,0.1c0.5,0,0.9-0.3,1.1-0.6c0.2-0.3,0.9-1.1,1.3-1.7c0,0,0,0,0-0.1c0.2,0,0.6,0,0.9,0c0,0,0,0,0,0.1
	c0.3,0.6,1,1.5,1.3,1.7c0.2,0.3,0.6,0.6,1.1,0.6c0.1,0,0.3,0,0.4-0.1c0.4-0.1,1-0.3,1.5-0.5c0.6-0.2,1.1-0.4,1.5-0.6
	c0.7-0.3,0.9-0.9,0.8-1.4c0-0.3,0-1.4-0.1-2.1c0,0,0,0,0-0.1c0.2-0.1,0.4-0.4,0.7-0.6c0,0,0,0,0.1,0c0.7,0.3,1.8,0.4,2.1,0.5
	c0.1,0,0.2,0.1,0.4,0.1c0.5,0,0.9-0.2,1.1-0.6c0.3-0.4,0.5-0.8,0.8-1.4s0.6-1,0.8-1.4c0.3-0.6,0.1-1.3-0.3-1.6
	c-0.2-0.3-0.9-1.1-1.5-1.5c0,0,0,0-0.1,0c0-0.2,0.1-0.5,0.2-0.9c0,0,0,0,0.1,0c0.7-0.2,1.6-0.8,1.9-1C28.1,14.5,28.5,14,28.4,13.3z
	 M25.1,14c-1,0.3-1.2,1-1.3,1.3c-0.1,0.5-0.2,0.9-0.2,1.1c-0.1,0.4-0.1,1,0.7,1.7c0.4,0.3,0.9,0.9,1.1,1.2c-0.2,0.3-0.4,0.7-0.6,1.1
	c-0.2,0.4-0.4,0.7-0.6,1.1c-0.4-0.1-1.2-0.2-1.6-0.4c-0.3-0.1-0.6-0.2-0.8-0.2c-0.5,0-0.8,0.2-1,0.4c-0.3,0.3-0.7,0.6-0.8,0.7
	c-0.3,0.2-0.8,0.7-0.5,1.8c0.1,0.4,0.1,1.2,0.1,1.6c-0.3,0.1-0.7,0.3-1.1,0.5c-0.4,0.2-0.8,0.3-1.2,0.4c-0.3-0.3-0.8-0.9-1-1.3
	c-0.5-0.9-1.1-1-1.4-1c0,0-0.1,0-0.1,0c-0.5,0-0.9,0-1.1,0c0,0-0.1,0-0.1,0c-0.3,0-1,0.1-1.4,1c-0.2,0.4-0.7,1-1,1.3
	c-0.4-0.1-0.8-0.2-1.2-0.4c-0.4-0.2-0.8-0.3-1.1-0.5c0-0.4,0-1.2,0.1-1.6c0.2-1-0.2-1.5-0.5-1.8c-0.3-0.3-0.7-0.6-0.9-0.7
	c-0.2-0.2-0.5-0.4-1-0.4c-0.3,0-0.5,0.1-0.8,0.2c-0.4,0.2-1.2,0.3-1.6,0.4c-0.2-0.3-0.4-0.7-0.6-1c-0.2-0.4-0.4-0.8-0.6-1.1
	C3.2,19,3.7,18.4,4,18.1c0.9-0.7,0.8-1.3,0.7-1.7l-0.2-1.1c0-0.4-0.2-1-1.3-1.3c-0.4-0.1-1.1-0.5-1.5-0.7c0-0.4,0.1-0.8,0.2-1.2
	c0.1-0.4,0.2-0.8,0.2-1.2c0.4-0.1,1.2-0.2,1.6-0.2c0,0,0.1,0,0.1,0c0.9,0,1.4-0.4,1.6-0.9c0.1-0.2,0.3-0.6,0.5-0.9
	C6.3,8.6,6.5,7.9,6,7C5.7,6.6,5.5,5.9,5.3,5.5C5.6,5.2,5.9,5,6.2,4.7c0.3-0.3,0.7-0.5,1-0.8c0.4,0.2,1,0.6,1.4,0.9
	C9,5.2,9.4,5.4,9.8,5.4c0.2,0,0.4-0.1,0.6-0.1c0.2-0.1,0.6-0.2,1-0.4c0.3-0.1,1-0.4,1.1-1.5C12.6,3,12.8,2.2,13,1.8
	c0.4,0,0.8,0,1.2,0c0.4,0,0.9,0,1.2,0c0.1,0.4,0.4,1.1,0.5,1.6C16,4.5,16.6,4.8,17,4.9c0.5,0.2,0.9,0.3,1,0.4
	c0.1,0.1,0.3,0.1,0.6,0.1c0.4,0,0.8-0.2,1.2-0.6c0.3-0.3,1-0.7,1.4-0.9c0.3,0.2,0.6,0.5,1,0.8c0.3,0.3,0.6,0.6,0.9,0.8
	c-0.1,0.4-0.4,1.1-0.6,1.5c-0.6,0.9-0.3,1.5-0.1,1.8c0.2,0.4,0.4,0.8,0.6,1c0.2,0.4,0.7,0.8,1.6,0.8c0,0,0.1,0,0.1,0
	c0.5,0,1.2,0.1,1.6,0.2c0.1,0.4,0.2,0.8,0.2,1.2c0.1,0.4,0.1,0.9,0.2,1.2C26.2,13.5,25.5,13.9,25.1,14z"/>
<path fill="#005AAA" d="M14.2,9.5c-2.5,0-4.5,2-4.5,4.5c0,2.5,2,4.5,4.5,4.5s4.5-2,4.5-4.5C18.7,11.5,16.7,9.5,14.2,9.5z M14.2,16.7
	c-1.5,0-2.7-1.2-2.7-2.7c0-1.5,1.2-2.7,2.7-2.7s2.7,1.2,2.7,2.7C16.9,15.5,15.7,16.7,14.2,16.7z"/>
</svg>
