<?xml version="1.0" encoding="utf-8"?>
<!-- Generator: Adobe Illustrator 15.0.0, SVG Export Plug-In . SVG Version: 6.00 Build 0)  -->
<!DOCTYPE svg PUBLIC "-//W3C//DTD SVG 1.1//EN" "http://www.w3.org/Graphics/SVG/1.1/DTD/svg11.dtd">
<svg version="1.1" id="Layer_1" xmlns="http://www.w3.org/2000/svg" xmlns:xlink="http://www.w3.org/1999/xlink" x="0px" y="0px"
	 width="26px" height="29.425px" viewBox="284.9 402.575 26 29.425" enable-background="new 284.9 402.575 26 29.425"
	 xml:space="preserve">
<path fill="#065BA9" d="M307.6,430.4h-5c-1.4-0.101-2.2-0.5-2.5-1.2c6.1-1,10.8-6.4,10.8-12.8c0-7.2-5.8-13-13-13s-13,5.8-13,13
	c0,6.4,4.7,11.8,10.8,12.8c-0.3,0.7-1.1,1.1-2.5,1.2h-5c0,0-0.9,0-0.9,0.399c0,0.101,0,0.5,0,1.2H308.4v-1.2
	C308.4,430.4,307.6,430.4,307.6,430.4z M286.5,416.3c0-6.2,5.101-11.3,11.3-11.3c6.201,0,11.301,5.1,11.301,11.3
	c0,6.2-5.101,11.3-11.301,11.3C291.6,427.6,286.5,422.6,286.5,416.3z"/>
<path fill="#065BA9" d="M300.801,422.6c-0.3-0.399-0.5-0.899-0.5-1.5c0-1.3,1.1-2.4,2.399-2.4c0.601,0,1.101,0.2,1.5,0.5
	c0.4-0.9,0.601-1.9,0.601-2.9c0-3.8-3.101-6.9-6.9-6.9c-0.8,0-1.5,0.1-2.2,0.4c1,0.5,1.8,1.6,1.8,2.9c0,1.8-1.5,3.2-3.2,3.2
	c-1.3,0-2.3-0.7-2.899-1.8c-0.2,0.7-0.4,1.4-0.4,2.2c0,3.8,3.101,6.9,6.9,6.9C298.9,423.2,299.9,423,300.801,422.6z"/>
</svg>
