<?xml version="1.0" encoding="utf-8"?>
<!-- Generator: Adobe Illustrator 15.0.0, SVG Export Plug-In . SVG Version: 6.00 Build 0)  -->
<!DOCTYPE svg PUBLIC "-//W3C//DTD SVG 1.1//EN" "http://www.w3.org/Graphics/SVG/1.1/DTD/svg11.dtd">
<svg version="1.1" id="Layer_1" xmlns="http://www.w3.org/2000/svg" xmlns:xlink="http://www.w3.org/1999/xlink" x="0px" y="0px"
	 width="28.401px" height="28.067px" viewBox="283.775 403.44 28.401 28.067" enable-background="new 283.775 403.44 28.401 28.067"
	 xml:space="preserve">
<path fill="#3F3F3F" d="M312.164,416.741c-0.055-0.452-0.123-0.994-0.229-1.587c-0.106-0.6-0.231-1.153-0.328-1.569
	c-0.165-0.705-0.731-1.039-1.246-1.067c-0.313-0.06-1.405-0.255-2.126-0.229l-0.044,0.001c-0.01,0-0.02,0-0.028,0
	c-0.094-0.155-0.294-0.487-0.469-0.811c0.01-0.019,0.022-0.04,0.037-0.063c0.389-0.622,0.745-1.648,0.854-1.978
	c0.238-0.468,0.213-1.128-0.305-1.613c-0.336-0.315-0.741-0.688-1.193-1.068c-0.459-0.385-0.895-0.717-1.261-0.991
	c-0.252-0.189-0.541-0.289-0.835-0.289c-0.368,0-0.643,0.15-0.803,0.27c-0.289,0.161-1.24,0.703-1.787,1.196
	c-0.02,0.018-0.038,0.033-0.053,0.045c-0.171-0.063-0.505-0.183-0.884-0.322c-0.004-0.02-0.009-0.042-0.013-0.068
	c-0.102-0.726-0.481-1.742-0.605-2.063c-0.117-0.514-0.562-1.005-1.271-1.044c-0.456-0.025-1.002-0.051-1.602-0.051
	s-1.146,0.026-1.602,0.051c-0.71,0.04-1.154,0.53-1.271,1.045c-0.125,0.321-0.505,1.337-0.606,2.063
	c-0.003,0.025-0.007,0.047-0.012,0.066c-0.322,0.116-0.693,0.252-0.885,0.323c-0.016-0.012-0.033-0.027-0.052-0.044
	c-0.548-0.494-1.499-1.036-1.788-1.196c-0.16-0.12-0.435-0.27-0.803-0.27c-0.295,0-0.584,0.1-0.835,0.289
	c-0.341,0.255-0.792,0.598-1.261,0.991c-0.453,0.38-0.857,0.753-1.194,1.068c-0.518,0.485-0.543,1.145-0.303,1.613
	c0.109,0.331,0.465,1.355,0.854,1.978c0.014,0.022,0.026,0.043,0.036,0.061c-0.188,0.33-0.375,0.652-0.47,0.814
	c-0.009,0-0.017,0-0.025,0h-0.045c-0.721-0.028-1.814,0.169-2.127,0.229c-0.514,0.029-1.081,0.363-1.246,1.068
	c-0.104,0.445-0.224,0.98-0.328,1.568c-0.104,0.59-0.173,1.133-0.228,1.586c-0.084,0.703,0.316,1.224,0.801,1.43
	c0.297,0.185,1.221,0.744,1.919,0.97c0.024,0.008,0.047,0.016,0.064,0.023l0.164,0.927c-0.015,0.013-0.032,0.028-0.054,0.044
	c-0.576,0.45-1.256,1.271-1.47,1.534c-0.388,0.359-0.592,0.99-0.271,1.625c0.206,0.406,0.457,0.893,0.757,1.412
	c0.299,0.516,0.596,0.979,0.847,1.363c0.264,0.402,0.679,0.635,1.138,0.635c0.151,0,0.283-0.025,0.384-0.055
	c0.336-0.045,1.408-0.209,2.096-0.488c0.025-0.01,0.049-0.02,0.068-0.025c0.137,0.105,0.437,0.346,0.717,0.602
	c-0.003,0.02-0.007,0.045-0.013,0.072c-0.153,0.715-0.14,1.779-0.131,2.121c-0.066,0.521,0.184,1.135,0.836,1.414
	c0.418,0.18,0.922,0.391,1.488,0.596c0.562,0.205,1.085,0.367,1.522,0.5c0.144,0.043,0.287,0.064,0.429,0.064
	c0.537,0,0.916-0.299,1.116-0.604c0.229-0.256,0.933-1.063,1.277-1.711c0.013-0.023,0.024-0.043,0.035-0.063
	c0.185,0,0.553-0.004,0.939,0c0.011,0.02,0.022,0.039,0.035,0.063c0.345,0.648,1.048,1.457,1.276,1.711
	c0.202,0.307,0.581,0.604,1.117,0.604c0.141,0,0.284-0.02,0.429-0.064c0.438-0.135,0.964-0.297,1.521-0.5
	c0.567-0.205,1.071-0.416,1.488-0.596c0.653-0.279,0.902-0.891,0.836-1.414c0.009-0.342,0.022-1.404-0.13-2.121
	c-0.005-0.023-0.009-0.045-0.012-0.063c0.156-0.125,0.437-0.354,0.725-0.609c0.019,0.008,0.037,0.016,0.061,0.023
	c0.687,0.277,1.759,0.441,2.095,0.488c0.101,0.029,0.231,0.055,0.383,0.055c0.46,0,0.875-0.232,1.139-0.637
	c0.25-0.383,0.546-0.844,0.846-1.361c0.299-0.518,0.55-1.006,0.757-1.414c0.321-0.635,0.117-1.264-0.271-1.623
	c-0.213-0.263-0.894-1.084-1.47-1.534c-0.021-0.017-0.04-0.032-0.055-0.046c0.027-0.178,0.088-0.548,0.163-0.923
	c0.019-0.008,0.042-0.016,0.066-0.024c0.699-0.227,1.624-0.785,1.92-0.97C311.847,417.964,312.25,417.443,312.164,416.741z
	 M308.889,417.428c-1.023,0.331-1.235,0.967-1.269,1.329c-0.096,0.478-0.17,0.949-0.195,1.114c-0.094,0.352-0.112,1.021,0.735,1.683
	c0.353,0.273,0.854,0.854,1.116,1.172c-0.169,0.328-0.364,0.697-0.584,1.078c-0.221,0.385-0.443,0.738-0.645,1.049
	c-0.396-0.059-1.173-0.195-1.583-0.361c-0.297-0.121-0.58-0.184-0.842-0.184c-0.475,0-0.821,0.201-1.027,0.428
	c-0.344,0.309-0.699,0.59-0.797,0.668c-0.296,0.197-0.775,0.695-0.543,1.779c0.093,0.438,0.101,1.201,0.093,1.611
	c-0.339,0.145-0.726,0.299-1.143,0.451c-0.411,0.15-0.811,0.279-1.166,0.389c-0.27-0.307-0.763-0.896-0.972-1.291
	c-0.473-0.893-1.096-1.025-1.425-1.025c-0.049,0-0.094,0.004-0.136,0.008c-0.454-0.004-0.894,0-1.068,0
	c-0.042-0.004-0.088-0.008-0.137-0.008c-0.329,0-0.952,0.133-1.424,1.023c-0.209,0.395-0.702,0.986-0.972,1.293
	c-0.354-0.109-0.753-0.238-1.166-0.389c-0.417-0.152-0.804-0.309-1.143-0.451c-0.007-0.402,0.001-1.178,0.094-1.611
	c0.224-1.043-0.212-1.543-0.509-1.756c-0.347-0.316-0.714-0.607-0.866-0.727c-0.208-0.213-0.544-0.393-0.994-0.393
	c-0.262,0-0.545,0.061-0.842,0.182c-0.413,0.166-1.178,0.301-1.583,0.361c-0.2-0.313-0.423-0.666-0.644-1.049
	s-0.416-0.75-0.584-1.078c0.258-0.313,0.766-0.898,1.115-1.172c0.859-0.67,0.829-1.348,0.733-1.696l-0.191-1.088
	c-0.028-0.359-0.232-1.007-1.27-1.342c-0.424-0.138-1.103-0.528-1.455-0.744c0.046-0.367,0.104-0.781,0.182-1.217
	c0.075-0.433,0.164-0.84,0.245-1.2c0.404-0.074,1.169-0.192,1.617-0.179c0.038,0.002,0.074,0.002,0.11,0.002
	c0.896,0,1.379-0.424,1.558-0.855c0.096-0.161,0.322-0.551,0.54-0.937c0.208-0.296,0.462-0.921-0.111-1.839
	c-0.237-0.379-0.511-1.114-0.646-1.509c0.28-0.259,0.583-0.533,0.919-0.815c0.341-0.286,0.676-0.547,0.96-0.762
	c0.358,0.203,1.032,0.609,1.362,0.906c0.406,0.367,0.826,0.553,1.246,0.553c0.246,0,0.438-0.066,0.575-0.134
	c0.169-0.063,0.639-0.236,1.01-0.368c0.349-0.089,0.955-0.4,1.105-1.483c0.063-0.443,0.32-1.182,0.47-1.574
	c0.369-0.018,0.785-0.033,1.227-0.033c0.44,0,0.857,0.015,1.227,0.033c0.148,0.392,0.407,1.13,0.47,1.573
	c0.149,1.077,0.75,1.391,1.1,1.482c0.458,0.169,0.866,0.316,1.023,0.373c0.135,0.067,0.326,0.131,0.568,0.131
	c0.42,0,0.839-0.186,1.245-0.553c0.332-0.299,0.997-0.7,1.362-0.906c0.294,0.223,0.623,0.479,0.961,0.762
	c0.336,0.282,0.64,0.556,0.919,0.815c-0.132,0.387-0.409,1.133-0.645,1.508c-0.568,0.908-0.326,1.53-0.119,1.83
	c0.209,0.391,0.448,0.789,0.553,0.958c0.182,0.427,0.664,0.843,1.554,0.843c0.035,0,0.071,0,0.108-0.002
	c0.458-0.016,1.213,0.104,1.617,0.179c0.081,0.357,0.168,0.762,0.245,1.2c0.077,0.437,0.135,0.851,0.181,1.217
	C309.998,416.895,309.311,417.291,308.889,417.428z"/>
<path fill="#3F3F3F" d="M297.975,412.964c-2.486,0-4.508,2.022-4.508,4.508c0,2.486,2.021,4.508,4.508,4.508
	s4.508-2.022,4.508-4.508C302.483,414.986,300.46,412.964,297.975,412.964z M297.975,420.179c-1.493,0-2.708-1.214-2.708-2.708
	c0-1.493,1.215-2.707,2.708-2.707s2.708,1.214,2.708,2.707C300.682,418.965,299.467,420.179,297.975,420.179z"/>
</svg>
