<?xml version="1.0" encoding="utf-8"?>
<!-- Generator: Adobe Illustrator 15.0.0, SVG Export Plug-In . SVG Version: 6.00 Build 0)  -->
<!DOCTYPE svg PUBLIC "-//W3C//DTD SVG 1.1//EN" "http://www.w3.org/Graphics/SVG/1.1/DTD/svg11.dtd">
<svg version="1.1" id="Layer_1" xmlns="http://www.w3.org/2000/svg" xmlns:xlink="http://www.w3.org/1999/xlink" x="0px" y="0px"
	 width="116.375px" height="29.574px" viewBox="0 0 116.375 29.574" enable-background="new 0 0 116.375 29.574"
	 xml:space="preserve">
<path fill="#095DA9" d="M28.179,1.083C26.37,0.363,24.001,0,21.081,0h-7.598c-2.83,0-5.068,0.406-6.711,1.219
	C5.11,2.034,3.939,3.276,3.233,4.945C2.53,6.616,2.177,8.79,2.177,11.458v5.506c0,2.674,0.432,4.822,1.299,6.441
	c0.863,1.623,2.208,2.793,4.021,3.514c1.813,0.719,4.179,1.084,7.1,1.084h6.658l0.838,1.57h8.254l-2.09-2.51
	c0.228-0.09,0.445-0.186,0.654-0.287c1.648-0.814,2.824-2.063,3.528-3.725c0.709-1.674,1.058-3.844,1.058-6.516v-5.494
	c0-2.688-0.43-4.838-1.303-6.449C31.329,2.981,29.987,1.815,28.179,1.083z M20.62,17.905h-4.748l1.859,3.488h-3.349
	c-3.119,0-4.681-1.607-4.681-4.854v-5.082c0-3.236,1.562-4.852,4.681-4.852h6.901c3.129,0,4.683,1.615,4.683,4.852v5.082
	c0,2.455-0.892,3.973-2.679,4.564L20.62,17.905z"/>
<path fill="#095DA9" d="M69.565,1.499c-1.77-0.688-4.064-1.035-6.902-1.035H47.485v27.078h16.271c2.734,0,4.904-0.402,6.518-1.172
	c1.607-0.775,2.748-1.961,3.436-3.543c0.688-1.588,1.025-3.654,1.025-6.195v-5.664c0-2.549-0.43-4.592-1.268-6.131
	C72.622,3.299,71.327,2.187,69.565,1.499z M67.204,16.631c0,3.074-1.35,4.625-4.039,4.625h-7.699V6.75h7.699
	c2.236,0,4.039,1.563,4.039,4.219V16.631z"/>
<path fill="#095DA9" d="M78.407,27.542h7.986V0.463h-7.986V27.542z"/>
<path fill="#095DA9" d="M115.112,15.167c-0.33-0.927-0.896-1.668-1.703-2.216c-0.816-0.541-1.902-0.962-3.285-1.229
	c-1.385-0.284-3.244-0.495-5.58-0.646l-3.324-0.208c-0.896-0.067-1.555-0.153-1.957-0.245c-0.395-0.088-0.713-0.307-0.951-0.631
	c-0.24-0.322-0.365-0.822-0.365-1.521c0-0.566,0.098-1.014,0.295-1.317c0.201-0.319,0.629-0.562,1.303-0.731
	c0.678-0.164,1.695-0.252,3.078-0.252c1.279,0,2.191,0.051,2.76,0.133c0.561,0.088,0.986,0.328,1.287,0.715
	c0.291,0.38,0.439,1.033,0.439,1.941h7.666V7.84c0-2.104-0.457-3.703-1.354-4.801c-0.912-1.104-2.215-1.846-3.934-2.221
	c-1.715-0.378-4.006-0.574-6.867-0.574c-2.947,0-5.301,0.196-7.07,0.581c-1.76,0.386-3.135,1.177-4.109,2.373
	c-0.98,1.194-1.482,2.964-1.49,5.317c0,1.816,0.262,3.242,0.773,4.309c0.514,1.061,1.258,1.848,2.217,2.359
	c0.975,0.51,2.059,0.857,3.25,1.021c1.193,0.168,3.023,0.34,5.475,0.508l1.762,0.104c1.438,0.076,2.41,0.164,2.908,0.262
	c0.504,0.092,0.838,0.287,1.012,0.59c0.18,0.313,0.266,0.865,0.266,1.672c0,0.756-0.146,1.301-0.457,1.654
	c-0.307,0.346-0.797,0.578-1.477,0.678c-0.68,0.107-1.701,0.158-3.057,0.158c-1.41,0-2.451-0.063-3.141-0.195
	c-0.684-0.129-1.158-0.416-1.463-0.857c-0.293-0.43-0.434-1.121-0.434-2.043h-7.668c0,1.98,0.264,3.572,0.781,4.779
	c0.525,1.207,1.305,2.113,2.348,2.721c1.041,0.605,2.313,1.01,3.824,1.209c1.504,0.211,3.428,0.307,5.75,0.307
	c2.949,0,5.244-0.121,6.906-0.355c1.67-0.229,2.93-0.648,3.805-1.268c0.879-0.617,1.479-1.477,1.791-2.6
	c0.318-1.117,0.482-2.664,0.482-4.656C115.608,17.327,115.444,16.094,115.112,15.167z"/>
<path fill="#095DA9" d="M42.409,10.61c-0.457-0.174-1.047-0.275-1.779-0.275h-0.986c-0.707,0-1.271,0.107-1.668,0.305
	c-0.423,0.193-0.714,0.494-0.895,0.896c-0.18,0.407-0.268,0.94-0.268,1.59v1.441c0,0.654,0.111,1.176,0.334,1.572
	c0.215,0.395,0.547,0.674,0.996,0.852c0.452,0.176,1.035,0.264,1.771,0.264h0.99c0.707,0,1.271-0.104,1.682-0.303
	c0.402-0.189,0.697-0.498,0.881-0.902c0.173-0.406,0.262-0.926,0.262-1.576v-1.451c0-0.655-0.111-1.172-0.32-1.57
	C43.188,11.061,42.856,10.777,42.409,10.61z"/>
</svg>
